<svg width="512" height="512" viewBox="0 0 512 512" fill="none" xmlns="http://www.w3.org/2000/svg">
    <path d="M80 193.368L126.037 236.998L173.915 213.327L145.372 187.335V182.693C145.372 179.599 146.14 177.278 147.674 175.731C149.516 174.184 151.664 173.41 154.119 173.41H262.306V114H128.339C112.379 114 100.256 118.332 91.9696 126.996C83.9899 135.351 80 147.728 80 164.127V193.368Z" fill="#6F6F6F"/>
    <path d="M327.807 397.588C292.512 397.588 265.043 390.068 245.401 375.03C226.065 359.684 216.398 338.047 216.398 310.117V276.971C216.398 267.457 213.328 260.091 207.19 254.873C201.052 249.349 192.765 246.586 182.33 246.586C171.895 246.586 163.608 249.349 157.47 254.873C151.332 260.091 148.263 267.457 148.263 276.971V329.453L129.388 311.959H135.372C150.718 311.959 162.074 315.335 169.44 322.087C177.113 328.839 180.949 339.121 180.949 352.932C180.949 367.05 176.499 377.792 167.598 385.158C159.005 392.217 145.04 395.746 125.705 395.746C106.676 395.746 92.5581 393.137 83.3507 387.92C74.4502 382.702 70 374.876 70 364.441V276.971C70 249.962 79.8212 229.092 99.4637 214.361C119.413 199.629 147.035 192.263 182.33 192.263C217.625 192.263 245.094 199.629 264.736 214.361C284.686 229.092 294.66 249.962 294.66 276.971V310.117C294.66 320.246 297.576 328.225 303.407 334.057C309.239 339.581 317.372 342.343 327.807 342.343C338.242 342.343 346.375 339.581 352.207 334.057C358.038 328.225 360.954 320.246 360.954 310.117V223.568C360.954 215.588 359.572 209.757 356.81 206.074C354.355 202.084 350.825 199.168 346.222 197.327V163.72C346.222 147.454 350.212 135.177 358.191 126.89C366.171 118.297 377.987 114 393.64 114H441.979V172.927H419.881C414.356 172.927 411.594 175.996 411.594 182.135V186.738C421.415 190.421 428.474 195.178 432.771 201.01C437.068 206.534 439.216 214.667 439.216 225.409V310.117C439.216 338.047 429.395 359.684 409.753 375.03C390.417 390.068 363.102 397.588 327.807 397.588ZM137.214 369.965C147.035 369.965 151.946 364.595 151.946 353.853C151.946 343.111 147.035 337.74 137.214 337.74V369.965Z" fill="#E6E6E6"/>
</svg>
